# xmcd
# 
# Track frame offsets:
#     182
#     11850
#     39347
#     52712
#     72062
#     84805
#     103975
#     119847
#     135175
#     148377
#     164437
#     191475
#     205572
#     217475
#     233097
#     249795
#     259007
#     276687
#     300367
#     319912
# 
# Disc length: 4572
# 
# Revision: 3
# Processed by: cddbd v1.5.2PL0 Copyright (c) Steve Scherf et al.
# Submitted via: fre:ac v1.0.17
# 
DISCID=2111da14
DTITLE=Various Artist - 100 % Blues
DYEAR=1989
DGENRE=Blues
TTITLE0=John Lee Hooker - Boogie Chillun
TTITLE1=Mississippi Waters - They Call It Boogie
TTITLE2=Muddy Waters - Hoochie Coochie Man
TTITLE3=Booker T. Laury - Booker Boogie
TTITLE4=T. Bone Walker - Stormy Monday Blues
TTITLE5=Luther Allison - You're Doing A Super Home Work
TTITLE6=Otis Rush - Natural Ball
TTITLE7=Albert King - Born Under A Bad Sign
TTITLE8=Brownie Mc Ghee - Sufferin'
TTITLE9=Brownie Mc Ghee - Robbin The Grave - Sonny Terry
TTITLE10=Champion Jack Dupree - My Real Combination For Love
TTITLE11=Memphis Slim - I Say Yeah
TTITLE12=Billy Boy Arnold - I Wish You Would
TTITLE13=Little Johnny - Part Time Love
TTITLE14=Screamin' Jay Hawkins - Alligator Wine
TTITLE15=Clifton Chenier - I Have To Go
TTITLE16=Lester Mad Dog - I Got A Woman
TTITLE17=Lightnin Hopkins - Ma' And Pa' Hopkins
TTITLE18=Big Bill Bronzy - Just A Dream
TTITLE19=R. P. Williams - Santa Fe Blues
EXTD=
EXTT0=
EXTT1=
EXTT2=
EXTT3=
EXTT4=
EXTT5=
EXTT6=
EXTT7=
EXTT8=
EXTT9=
EXTT10=
EXTT11=
EXTT12=
EXTT13=
EXTT14=
EXTT15=
EXTT16=
EXTT17=
EXTT18=
EXTT19=
PLAYORDER=
